/* XPM */
static char * close_inactive_xpm[] = {
"48 32 11 1",
" 	c None",
".	c #404040",
"+	c #4C4C4C",
"@	c #8D8D8D",
"#	c #999999",
"$	c #636363",
"%	c #4B4B4B",
"&	c #676767",
"*	c #8B8B8B",
"=	c #494949",
"-	c #717171",
"................................................",
"................................................",
"................................................",
"................................................",
"................................................",
"................................................",
"................................................",
"................................................",
"................................................",
"................................................",
"................................................",
"................+@##$......$##@%................",
"..................&##*=..=*##&..................",
"...................=*##--##*=...................",
".....................&####&.....................",
".....................&####&.....................",
"...................=*##--##*=...................",
"..................&##*=..=*##&..................",
"................=*##&......&##*=................",
"................................................",
"................................................",
"................................................",
"................................................",
"................................................",
"................................................",
"................................................",
"................................................",
"................................................",
"................................................",
"................................................",
"................................................",
"................................................"};
