/* XPM */
static char * close_prelight_xpm[] = {
"48 32 14 1",
" 	c None",
".	c #722828",
"+	c #834343",
"@	c #DDD4D4",
"#	c #EEEEEE",
"$	c #A37777",
"%	c #A47777",
"&	c #824242",
"*	c #722929",
"=	c #A87F7F",
"-	c #DACECE",
";	c #7F3D3D",
">	c #B79797",
",	c #FF4A4A",
"................................................",
"................................................",
"................................................",
"................................................",
"................................................",
"................................................",
"................................................",
"................................................",
"................................................",
"................................................",
"................................................",
"................+@##$......%##@&................",
".................*=##-;..;-##=*.................",
"...................;-##>>##-;...................",
"....................*=####=*....................",
"....................*=####=*....................",
"...................;-##>>##-;...................",
".................*=##-;..;-##=*.................",
"................;-##=*....*=##-;................",
"................................................",
"................................................",
"................................................",
"................................................",
"................................................",
"................................................",
"................................................",
"................................................",
"................................................",
",,,,,,,,,,,,,,,,,,,,,,,,,,,,,,,,,,,,,,,,,,,,,,,,",
",,,,,,,,,,,,,,,,,,,,,,,,,,,,,,,,,,,,,,,,,,,,,,,,",
",,,,,,,,,,,,,,,,,,,,,,,,,,,,,,,,,,,,,,,,,,,,,,,,",
",,,,,,,,,,,,,,,,,,,,,,,,,,,,,,,,,,,,,,,,,,,,,,,,"};
