/* XPM */
static char * close_prelight_xpm[] = {
"48 32 11 1",
" 	c None",
".	c #737373",
"+	c #838383",
"@	c #DEDEDE",
"#	c #EEEEEE",
"$	c #A4A4A4",
"%	c #A9A9A9",
"&	c #DADADA",
"*	c #808080",
"=	c #B7B7B7",
"-	c #FF4A4A",
"................................................",
"................................................",
"................................................",
"................................................",
"................................................",
"................................................",
"................................................",
"................................................",
"................................................",
"................................................",
"................................................",
"................+@##$......$##@+................",
"..................%##&*..*&##%..................",
"...................*&##==##&*...................",
".....................%####%.....................",
".....................%####%.....................",
"...................*&##==##&*...................",
"..................%##&*..*&##%..................",
"................*&##%......%##&*................",
"................................................",
"................................................",
"................................................",
"................................................",
"................................................",
"................................................",
"................................................",
"................................................",
"................................................",
"------------------------------------------------",
"------------------------------------------------",
"------------------------------------------------",
"------------------------------------------------"};
