/* XPM */
static char * close_pressed_xpm[] = {
"48 32 14 1",
" 	c None",
".	c #FF4A4A",
"+	c #FC6060",
"@	c #F0D8D8",
"#	c #EEEEEE",
"$	c #F88B8B",
"%	c #FE4A4A",
"&	c #F88C8C",
"*	c #FC5F5F",
"=	c #FE4B4B",
"-	c #F79292",
";	c #F0D4D4",
">	c #FD5C5C",
",	c #F5A5A5",
"................................................",
"................................................",
"................................................",
"................................................",
"................................................",
"................................................",
"................................................",
"................................................",
"................................................",
"................................................",
"................................................",
"................+@##$%....%&##@*................",
".................=-##;>..>;##-=.................",
"...................>;##,,##;>...................",
"....................=-####-=....................",
"....................=-####-=....................",
"...................>;##,,##;>...................",
".................=-##;>..>;##-=.................",
"................>;##-=....=-##;>................",
"................................................",
"................................................",
"................................................",
"................................................",
"................................................",
"................................................",
"................................................",
"................................................",
"................................................",
"................................................",
"................................................",
"................................................",
"................................................"};
