/* XPM */
static char * menu_inactive_xpm[] = {
"48 32 3 1",
" 	c None",
".	c #404040",
"+	c #999999",
"................................................",
"................................................",
"................................................",
"................................................",
"................................................",
"................................................",
"................................................",
"................................................",
"................................................",
"................................................",
"................................................",
"................++++++++++++++++................",
"................++++++++++++++++................",
"................................................",
"................++++++++++++++++................",
"................++++++++++++++++................",
"................................................",
"................++++++++++++++++................",
"................++++++++++++++++................",
"................................................",
"................................................",
"................................................",
"................................................",
"................................................",
"................................................",
"................................................",
"................................................",
"................................................",
"................................................",
"................................................",
"................................................",
"................................................"};
