/* XPM */
static char * menu_prelight_xpm[] = {
"48 32 4 1",
" 	c None",
".	c #737373",
"+	c #EEEEEE",
"@	c #FFE500",
"................................................",
"................................................",
"................................................",
"................................................",
"................................................",
"................................................",
"................................................",
"................................................",
"................................................",
"................................................",
"................................................",
"................++++++++++++++++................",
"................++++++++++++++++................",
"................................................",
"................++++++++++++++++................",
"................++++++++++++++++................",
"................................................",
"................++++++++++++++++................",
"................++++++++++++++++................",
"................................................",
"................................................",
"................................................",
"................................................",
"................................................",
"................................................",
"................................................",
"................................................",
"................................................",
"@@@@@@@@@@@@@@@@@@@@@@@@@@@@@@@@@@@@@@@@@@@@@@@@",
"@@@@@@@@@@@@@@@@@@@@@@@@@@@@@@@@@@@@@@@@@@@@@@@@",
"@@@@@@@@@@@@@@@@@@@@@@@@@@@@@@@@@@@@@@@@@@@@@@@@",
"@@@@@@@@@@@@@@@@@@@@@@@@@@@@@@@@@@@@@@@@@@@@@@@@"};
