/* XPM */
static char * menu_pressed_xpm[] = {
"48 32 3 1",
" 	c None",
".	c #FFE500",
"+	c #333333",
"................................................",
"................................................",
"................................................",
"................................................",
"................................................",
"................................................",
"................................................",
"................................................",
"................................................",
"................................................",
"................................................",
"................++++++++++++++++................",
"................++++++++++++++++................",
"................................................",
"................++++++++++++++++................",
"................++++++++++++++++................",
"................................................",
"................++++++++++++++++................",
"................++++++++++++++++................",
"................................................",
"................................................",
"................................................",
"................................................",
"................................................",
"................................................",
"................................................",
"................................................",
"................................................",
"................................................",
"................................................",
"................................................",
"................................................"};
