/* XPM */
static char * shade_active_xpm[] = {
"48 32 15 1",
" 	c None",
".	c #111111",
"+	c #CCCCCC",
"@	c #131313",
"#	c #636363",
"$	c #4D4D4D",
"%	c #C3C3C3",
"&	c #BEBEBE",
"*	c #3F3F3F",
"=	c #252525",
"-	c #A5A5A5",
";	c #6D6D6D",
">	c #9D9D9D",
",	c #212121",
"'	c #00B7FF",
"................................................",
"................................................",
"................................................",
"................................................",
"................................................",
"................................................",
"................................................",
"................................................",
"................................................",
"................................................",
"................................................",
"................++++++++++++++++................",
"................................................",
"....................@#++++#@....................",
"...................$%++++++&*...................",
".................=-++#++++;++>,.................",
"......................++++......................",
"......................++++......................",
"......................++++......................",
"................................................",
"................................................",
"................................................",
"................................................",
"................................................",
"................................................",
"................................................",
"................................................",
"................................................",
"''''''''''''''''''''''''''''''''''''''''''''''''",
"''''''''''''''''''''''''''''''''''''''''''''''''",
"''''''''''''''''''''''''''''''''''''''''''''''''",
"''''''''''''''''''''''''''''''''''''''''''''''''"};
