/* XPM */
static char * shade_toggled_pressed_xpm[] = {
"48 32 14 1",
" 	c None",
".	c #00B7FF",
"+	c #EEEEEE",
"@	c #1ABDFD",
"#	c #BCE2F1",
"$	c #69CFF7",
"%	c #75D2F6",
"&	c #B3E0F2",
"*	c #15BBFD",
"=	c #4CC8F9",
"-	c #E2EBEE",
";	c #DDEAEF",
">	c #3BC4FA",
",	c #02B7FE",
"................................................",
"................................................",
"................................................",
"................................................",
"................................................",
"................................................",
"................................................",
"................................................",
"................................................",
"................................................",
"................................................",
"......................++++......................",
"......................++++......................",
"......................++++......................",
".................@#++$++++%++&*.................",
"...................=-++++++;>...................",
"....................,$++++$,....................",
"................................................",
"................++++++++++++++++................",
"................................................",
"................................................",
"................................................",
"................................................",
"................................................",
"................................................",
"................................................",
"................................................",
"................................................",
"................................................",
"................................................",
"................................................",
"................................................"};
